HIERARCHY
ROOT Hips
{
	OFFSET -0.001795 -0.223333 0.028219
	CHANNELS 6 Xposition Yposition Zposition Zrotation Yrotation Xrotation 
	JOINT LeftUpLeg
	{
		OFFSET 0.069520 -0.091406 -0.006815
		CHANNELS 3 Zrotation Yrotation Xrotation
		JOINT LeftLeg
		{
			OFFSET 0.034277 -0.375199 -0.004496
			CHANNELS 3 Zrotation Yrotation Xrotation
			JOINT LeftFoot
			{
				OFFSET -0.013596 -0.397961 -0.043693
				CHANNELS 3 Zrotation Yrotation Xrotation
				JOINT LeftToe
				{
					OFFSET 0.026358 -0.055791 0.119288
					CHANNELS 3 Zrotation Yrotation Xrotation
					End Site
					{
						OFFSET 0.000000 0.000000 0.000000
					}
				}
			}
		}
	}
	JOINT RightUpLeg
	{
		OFFSET -0.067670 -0.090522 -0.004320
		CHANNELS 3 Zrotation Yrotation Xrotation
		JOINT RightLeg
		{
			OFFSET -0.038290 -0.382569 -0.008850
			CHANNELS 3 Zrotation Yrotation Xrotation
			JOINT RightFoot
			{
				OFFSET 0.015774 -0.398415 -0.042312
				CHANNELS 3 Zrotation Yrotation Xrotation
				JOINT RightToe
				{
					OFFSET -0.025372 -0.048144 0.123348
					CHANNELS 3 Zrotation Yrotation Xrotation
					End Site
					{
						OFFSET 0.000000 0.000000 0.000000
					}
				}
			}
		}
	}
	JOINT Spine
	{
		OFFSET -0.002533 0.108963 -0.026696
		CHANNELS 3 Zrotation Yrotation Xrotation
		JOINT Spine1
		{
			OFFSET 0.005487 0.135180 0.001092
			CHANNELS 3 Zrotation Yrotation Xrotation
			JOINT Spine2
			{
				OFFSET 0.001457 0.052922 0.025425
				CHANNELS 3 Zrotation Yrotation Xrotation
				JOINT Neck
				{
					OFFSET -0.002778 0.213870 -0.042857
					CHANNELS 3 Zrotation Yrotation Xrotation
					JOINT Head
					{
						OFFSET 0.005152 0.064970 0.051349
						CHANNELS 3 Zrotation Yrotation Xrotation
						End Site
						{
							OFFSET 0.000000 0.000000 0.000000
						}
					}
				}
				JOINT LeftShoulder
				{
					OFFSET 0.078845 0.121749 -0.034090
					CHANNELS 3 Zrotation Yrotation Xrotation
					JOINT LeftArm
					{
						OFFSET 0.090977 0.030469 -0.008868
						CHANNELS 3 Zrotation Yrotation Xrotation
						JOINT LeftForeArm
						{
							OFFSET 0.259612 -0.012772 -0.027456
							CHANNELS 3 Zrotation Yrotation Xrotation
							JOINT LeftHand
							{
								OFFSET 0.249234 0.008986 -0.001171
								CHANNELS 3 Zrotation Yrotation Xrotation
								End Site
								{
									OFFSET 0.000000 0.000000 0.000000
								}
							}
						}
					}
				}
				JOINT RightShoulder
				{
					OFFSET -0.081759 0.118833 -0.038615
					CHANNELS 3 Zrotation Yrotation Xrotation
					JOINT RightArm
					{
						OFFSET -0.096012 0.032551 -0.009143
						CHANNELS 3 Zrotation Yrotation Xrotation
						JOINT RightForeArm
						{
							OFFSET -0.253742 -0.013329 -0.021401
							CHANNELS 3 Zrotation Yrotation Xrotation
							JOINT RightHand
							{
								OFFSET -0.255298 0.007772 -0.005559
								CHANNELS 3 Zrotation Yrotation Xrotation
								End Site
								{
									OFFSET 0.000000 0.000000 0.000000
								}
							}
						}
					}
				}
			}
		}
	}
}
MOTION
Frames: 13
Frame Time: 0.050000
-0.149717 0.954870 0.205238 -9.255527 -32.203400 11.496247 15.516545 1.750909 -7.022590 3.284616 -0.024703 -7.302385 1.318252 3.394614 19.972746 0.000000 0.000000 0.000000 9.624231 -0.586350 -0.363833 -3.377269 0.091190 -1.543780 -3.081094 -11.517071 7.780899 0.000000 0.000000 0.000000 -10.514310 1.142282 4.101022 1.478754 -0.664211 -2.878560 -3.582929 -10.641415 10.786839 -7.077594 3.156747 -11.973475 0.000000 0.000000 0.000000 -3.387851 -6.541380 4.198988 -51.173608 -22.623680 4.997729 8.237416 -13.964488 0.025010 0.000000 0.000000 0.000000 0.017256 9.510366 2.398981 73.617899 11.961413 -7.049458 11.967797 20.901101 1.583490 0.000000 0.000000 0.000000 
-0.144138 0.955715 0.218378 -10.034910 -30.986705 11.881612 15.686204 1.660012 -6.565631 3.434245 0.022079 -7.892217 1.206785 3.425180 20.239491 0.000000 0.000000 0.000000 9.600109 -0.563646 -0.533448 -3.142320 0.083785 -1.535839 -3.680353 -12.990791 8.774910 0.000000 0.000000 0.000000 -10.305486 1.142189 4.685045 1.569317 -0.714932 -3.290171 -3.894520 -10.072624 10.741840 -6.153033 2.612211 -11.964434 0.000000 0.000000 0.000000 -2.827726 -6.946658 4.140842 -50.385196 -22.510853 4.708010 8.202919 -14.009392 0.020228 0.000000 0.000000 0.000000 0.541895 9.533872 2.293300 73.872581 11.262978 -7.110885 12.646915 21.806164 1.802172 0.000000 0.000000 0.000000 
-0.137913 0.957095 0.230155 -10.438084 -29.286661 12.280282 15.303235 1.431564 -6.180010 3.739417 0.135605 -9.175496 0.728089 3.052106 20.870229 0.000000 0.000000 0.000000 9.499870 -0.548441 -0.650427 -3.148111 0.065470 -1.930222 -3.644320 -13.557631 10.208465 0.000000 0.000000 0.000000 -9.991378 1.131665 5.416321 1.659072 -0.752122 -3.505477 -4.011867 -9.674903 10.488788 -5.753279 2.476697 -11.812719 0.000000 0.000000 0.000000 -2.296874 -7.092677 3.974536 -50.017893 -23.088946 4.872788 8.397566 -14.577226 0.003836 0.000000 0.000000 0.000000 1.010803 9.897162 2.328464 72.915016 10.675032 -6.738581 13.938571 23.047381 2.156709 0.000000 0.000000 0.000000 
-0.131275 0.958366 0.240306 -10.948733 -27.155179 12.367187 15.107645 1.245387 -6.015884 3.771885 0.174094 -9.474964 0.386297 2.808585 20.203117 0.000000 0.000000 0.000000 9.099827 -0.576400 -0.356580 -2.794765 0.030756 -2.397622 -3.746177 -14.321183 11.937040 0.000000 0.000000 0.000000 -9.588440 1.116001 6.502599 1.823255 -0.830791 -4.393916 -4.196378 -8.988863 10.871123 -4.892588 2.044214 -11.672124 0.000000 0.000000 0.000000 -1.100716 -7.589607 3.760047 -50.153278 -23.960744 5.342515 8.352321 -15.504603 -0.005091 0.000000 0.000000 0.000000 1.858766 9.882142 2.182835 71.784565 9.829601 -6.422055 14.969962 24.808874 2.574534 0.000000 0.000000 0.000000 
-0.124558 0.959913 0.248822 -10.966825 -24.697225 12.231115 14.860642 1.044659 -5.931301 3.457764 0.282522 -10.295302 -0.088549 2.585242 20.617698 0.000000 0.000000 0.000000 8.812093 -0.553254 -0.384361 -2.752632 0.031740 -2.425679 -3.721593 -14.572584 13.113798 0.000000 0.000000 0.000000 -9.316777 1.074399 7.075554 2.169125 -0.955642 -4.460165 -4.327521 -9.031560 10.927721 -4.703596 2.067003 -11.356876 0.000000 0.000000 0.000000 -0.253436 -7.934216 3.625238 -50.216336 -25.203781 5.961477 8.354426 -16.393209 -0.013810 0.000000 0.000000 0.000000 1.923189 10.283180 2.381515 71.043519 10.272607 -5.658787 15.596081 25.416221 2.846523 0.000000 0.000000 0.000000 
-0.117980 0.960491 0.255817 -11.247857 -22.494418 12.362481 14.903372 0.911485 -6.008832 3.256063 0.353004 -10.855528 -0.267865 2.673049 20.559499 0.000000 0.000000 0.000000 8.214031 -0.462083 -0.795790 -2.129982 0.008846 -2.411076 -3.759741 -14.738939 13.872098 0.000000 0.000000 0.000000 -8.978832 1.047570 7.861495 2.446824 -1.051356 -5.205042 -4.351961 -8.724236 11.298795 -3.983379 1.684602 -11.420095 0.000000 0.000000 0.000000 0.846995 -8.247650 3.432521 -50.525699 -26.462057 6.673878 8.776616 -17.631577 -0.066713 0.000000 0.000000 0.000000 2.309683 9.908287 2.253521 70.309755 10.128947 -5.251041 16.608255 26.442263 3.240900 0.000000 0.000000 0.000000 
-0.111539 0.960460 0.261315 -11.365508 -20.900512 12.229020 14.726367 0.784163 -5.820047 3.098866 0.405965 -11.314237 -0.445678 2.715797 20.733286 0.000000 0.000000 0.000000 7.617274 -0.411117 -0.904661 -1.800674 -0.011744 -2.586686 -3.939871 -15.117888 14.641851 0.000000 0.000000 0.000000 -8.743525 1.010613 8.291570 2.497153 -1.060935 -5.251593 -4.533637 -8.582204 11.481229 -3.436632 1.392001 -11.584875 0.000000 0.000000 0.000000 1.596818 -7.957935 3.106306 -50.515221 -27.619107 7.264206 9.645937 -18.792241 -0.169601 0.000000 0.000000 0.000000 2.693739 10.092426 2.293082 69.801963 9.920138 -5.000229 17.021032 28.109376 3.595751 0.000000 0.000000 0.000000 
-0.105202 0.960071 0.265477 -11.553610 -19.863016 12.143893 14.579856 0.719182 -6.052297 2.781120 0.385231 -10.985282 -0.701640 2.402496 20.086465 0.000000 0.000000 0.000000 6.955155 -0.388922 -0.807795 -1.374722 -0.019348 -2.357883 -3.724970 -14.905996 15.381622 0.000000 0.000000 0.000000 -8.818657 1.060482 9.099044 2.431375 -1.029026 -5.109943 -4.321735 -8.177199 11.558965 -2.699771 0.959128 -11.958271 0.000000 0.000000 0.000000 1.917496 -8.170032 3.101861 -49.790190 -28.718675 7.550923 10.575359 -19.345647 -0.306095 0.000000 0.000000 0.000000 3.115982 9.622528 2.114251 68.988786 10.466351 -4.289135 18.290751 29.247496 4.088174 0.000000 0.000000 0.000000 
-0.098810 0.960015 0.268693 -11.821240 -19.112681 12.265466 14.776280 0.714378 -6.372822 2.457467 0.396960 -10.991894 -1.079173 1.937228 19.855300 0.000000 0.000000 0.000000 6.478329 -0.306208 -1.206926 -0.762107 -0.039201 -2.168822 -3.898080 -15.324845 16.199173 0.000000 0.000000 0.000000 -8.854073 1.079941 9.452002 2.282512 -0.965073 -5.004557 -4.123853 -8.121317 11.787535 -2.518761 0.857543 -12.293857 0.000000 0.000000 0.000000 1.888521 -8.224385 3.125843 -49.061105 -29.262999 7.563087 11.592734 -19.531331 -0.445473 0.000000 0.000000 0.000000 3.873214 10.617968 2.330871 67.903057 12.045825 -2.960770 18.408156 29.915371 4.236785 0.000000 0.000000 0.000000 
-0.092203 0.960031 0.271702 -12.097879 -18.500084 12.597685 14.972181 0.732807 -7.010676 2.052559 0.371259 -10.519139 -0.917038 2.108583 19.128115 0.000000 0.000000 0.000000 5.849974 -0.196541 -1.785134 -0.112726 -0.061100 -1.949320 -4.306351 -16.162736 17.357354 0.000000 0.000000 0.000000 -9.133210 1.160377 9.938681 2.435973 -1.019727 -4.818778 -3.702091 -7.962442 11.963959 -1.997961 0.548876 -12.310368 0.000000 0.000000 0.000000 1.493309 -8.061633 3.145166 -48.124028 -29.894147 7.516242 12.350185 -19.663202 -0.551829 0.000000 0.000000 0.000000 4.540528 11.656027 2.606388 66.718541 14.314350 -1.299689 17.919108 30.187876 4.199074 0.000000 0.000000 0.000000 
-0.085586 0.960543 0.274702 -12.231463 -18.291265 12.751444 14.808669 0.726178 -7.507760 2.142091 0.346723 -10.263055 -1.008446 2.026231 19.267233 0.000000 0.000000 0.000000 5.197214 -0.043782 -2.680163 0.357166 -0.069352 -1.539394 -4.539859 -16.628567 17.916325 0.000000 0.000000 0.000000 -9.052340 1.179933 10.370976 2.181301 -0.918221 -4.559763 -3.365215 -7.635853 11.796048 -1.595948 0.333228 -12.131596 0.000000 0.000000 0.000000 1.060684 -8.148901 3.264445 -47.322723 -30.448920 7.471298 12.418018 -18.514108 -0.549040 0.000000 0.000000 0.000000 5.289316 12.806579 2.935108 65.255550 16.678245 0.377011 17.209795 30.511052 4.119195 0.000000 0.000000 0.000000 
-0.079107 0.960738 0.277647 -12.642295 -18.485582 13.051645 14.627941 0.747172 -8.043804 2.434280 0.310173 -9.973849 -0.929866 1.949850 18.573029 0.000000 0.000000 0.000000 4.822532 0.075343 -3.459773 0.635763 -0.076124 -1.356943 -4.630921 -16.939087 18.516518 0.000000 0.000000 0.000000 -8.985592 1.188563 10.519668 1.981890 -0.839950 -4.314469 -2.991966 -7.334018 11.866830 -1.091961 0.011352 -12.097495 0.000000 0.000000 0.000000 0.891510 -8.407456 3.401928 -46.509347 -30.847927 7.417700 12.481436 -16.398752 -0.510918 0.000000 0.000000 0.000000 5.496334 13.974701 3.345936 64.426537 19.041826 1.799869 16.081963 30.274848 3.843764 0.000000 0.000000 0.000000 
-0.073267 0.960632 0.280219 -12.783173 -19.069836 13.567690 14.436287 0.773616 -8.490862 2.515992 0.297557 -9.869584 -0.655896 2.246312 18.613252 0.000000 0.000000 0.000000 4.405798 0.185194 -4.225662 0.669441 -0.074299 -1.319511 -4.568249 -17.051429 19.022083 0.000000 0.000000 0.000000 -9.176316 1.228078 10.229862 1.744394 -0.744636 -4.083351 -2.583329 -7.088728 11.783794 -0.672574 -0.283066 -12.547382 0.000000 0.000000 0.000000 1.305135 -9.006170 3.568607 -45.436184 -30.668686 7.100855 12.469875 -14.685655 -0.456639 0.000000 0.000000 0.000000 5.475081 14.716210 3.610810 64.144024 21.094340 2.940207 15.001074 30.454733 3.609579 0.000000 0.000000 0.000000 
